<?xml version="1.0" encoding="UTF-8" standalone="no"?>
<!-- Created with Inkscape (http://www.inkscape.org/) -->

<svg
   xmlns:dc="http://purl.org/dc/elements/1.1/"
   xmlns:cc="http://creativecommons.org/ns#"
   xmlns:rdf="http://www.w3.org/1999/02/22-rdf-syntax-ns#"
   xmlns:svg="http://www.w3.org/2000/svg"
   xmlns="http://www.w3.org/2000/svg"
   xmlns:sodipodi="http://sodipodi.sourceforge.net/DTD/sodipodi-0.dtd"
   xmlns:inkscape="http://www.inkscape.org/namespaces/inkscape"
   version="1.1"
   id="svg110"
   width="225"
   height="225"
   viewBox="0 0 225 225"
   sodipodi:docname="cdrom.svg"
   inkscape:version="0.92.3 (2405546, 2018-03-11)">
  <metadata
     id="metadata116">
    <rdf:RDF>
      <cc:Work
         rdf:about="">
        <dc:format>image/svg+xml</dc:format>
        <dc:type
           rdf:resource="http://purl.org/dc/dcmitype/StillImage" />
        <dc:title></dc:title>
      </cc:Work>
    </rdf:RDF>
  </metadata>
  <defs
     id="defs114" />
  <sodipodi:namedview
     pagecolor="#ffffff"
     bordercolor="#666666"
     borderopacity="1"
     objecttolerance="10"
     gridtolerance="10"
     guidetolerance="10"
     inkscape:pageopacity="0"
     inkscape:pageshadow="2"
     inkscape:window-width="1920"
     inkscape:window-height="1017"
     id="namedview112"
     showgrid="false"
     inkscape:zoom="1.0488889"
     inkscape:cx="112.5"
     inkscape:cy="112.5"
     inkscape:window-x="-8"
     inkscape:window-y="-8"
     inkscape:window-maximized="1"
     inkscape:current-layer="svg110" />
  <path
     d="M 97.867915,206.83738 C 58.670155,201.86332 24.479267,169.90516 17.320734,130.9824 10.251529,97.522581 23.24117,61.134167 49.901218,39.68872 85.973349,7.2773744 147.57733,10.849669 179.43232,47.544705 c 35.5788,34.562074 34.66044,98.382235 -1.93001,131.893565 -19.95006,21.57476 -50.81324,31.09538 -79.634395,27.39911 z m 22.856605,-57.63353 c 23.13865,-5.8445 35.78855,-35.59672 22.54598,-55.852369 C 132.49004,73.731433 103.6318,68.044116 86.744408,83.108072 69.317503,96.230231 67.706544,124.44886 83.823555,139.26023 c 9.367373,9.8131 23.872155,13.60939 36.900965,9.94362 z m -15.11626,-3.40497 C 83.161006,143.41699 69.555977,115.81814 80.892719,96.481691 88.044714,82.522835 104.30184,76.785108 119.16612,79.849135 c 21.90772,4.883312 32.72541,34.030155 19.02648,51.928045 -7.18628,10.36848 -20.0968,15.98921 -32.58434,14.0217 z m 13.40162,-18.78326 c 12.78057,-6.43482 9.96499,-27.922099 -4.23807,-30.671579 -13.83984,-4.439706 -26.648472,12.946289 -18.450575,24.876069 4.407705,7.75461 15.073255,10.50527 22.688645,5.79551 z m 19.73696,-72.770146 c 4.14468,-9.311725 18.49539,-23.324884 -0.12717,-25.885629 -6.94314,-1.581011 -27.63632,-10.765476 -28.46928,-0.334016 0,13.564594 0,27.129188 0,40.693782 10.80574,1.158572 21.53528,8.479884 24.53091,-7.171883 1.36506,-2.428567 2.71947,-4.863114 4.06554,-7.302254 z"
     id="path120"
     inkscape:connector-curvature="0" />
</svg>
