<?xml version="1.0" encoding="UTF-8" standalone="no"?>
<!-- Created with Inkscape (http://www.inkscape.org/) -->

<svg
   xmlns:dc="http://purl.org/dc/elements/1.1/"
   xmlns:cc="http://creativecommons.org/ns#"
   xmlns:rdf="http://www.w3.org/1999/02/22-rdf-syntax-ns#"
   xmlns:svg="http://www.w3.org/2000/svg"
   xmlns="http://www.w3.org/2000/svg"
   xmlns:sodipodi="http://sodipodi.sourceforge.net/DTD/sodipodi-0.dtd"
   xmlns:inkscape="http://www.inkscape.org/namespaces/inkscape"
   version="1.1"
   id="svg98"
   width="72"
   height="72"
   viewBox="0 0 72 72"
   sodipodi:docname="drive.svg"
   inkscape:version="0.92.3 (2405546, 2018-03-11)">
  <metadata
     id="metadata104">
    <rdf:RDF>
      <cc:Work
         rdf:about="">
        <dc:format>image/svg+xml</dc:format>
        <dc:type
           rdf:resource="http://purl.org/dc/dcmitype/StillImage" />
        <dc:title></dc:title>
      </cc:Work>
    </rdf:RDF>
  </metadata>
  <defs
     id="defs102" />
  <sodipodi:namedview
     pagecolor="#ffffff"
     bordercolor="#666666"
     borderopacity="1"
     objecttolerance="10"
     gridtolerance="10"
     guidetolerance="10"
     inkscape:pageopacity="0"
     inkscape:pageshadow="2"
     inkscape:window-width="1920"
     inkscape:window-height="1017"
     id="namedview100"
     showgrid="false"
     inkscape:zoom="3.2777778"
     inkscape:cx="36"
     inkscape:cy="36"
     inkscape:window-x="-8"
     inkscape:window-y="-8"
     inkscape:window-maximized="1"
     inkscape:current-layer="svg98" />
  <path
     d="M 9.0948483,47.713174 C 7.5739523,47.022416 6.5386022,45.82351 6.0580771,44.196672 5.8448112,43.474653 5.7546758,40.255072 5.8182131,35.628902 L 5.92,28.217804 6.9139274,26.988902 C 7.4605872,26.313006 8.3965872,25.472 8.9939274,25.12 10.055591,24.494384 10.655357,24.48 35.68,24.48 c 25.024643,0 25.62441,0.01438 26.686074,0.64 0.597337,0.352 1.533337,1.193006 2.08,1.868902 l 0.993926,1.228902 0.101786,7.411098 c 0.06354,4.62617 -0.02659,7.845751 -0.239863,8.56777 -0.480525,1.626838 -1.515875,2.825744 -3.036771,3.516502 -1.235226,0.561012 -2.659603,0.592772 -26.585152,0.592772 -23.925549,0 -25.349927,-0.03174 -26.5851517,-0.592772 z M 19.217725,39.030515 C 19.957035,38.634848 20.8,37.096982 20.8,36.143891 20.8,35.253504 18.826495,33.28 17.936109,33.28 c -0.953093,0 -2.490956,0.842966 -2.886623,1.582275 -1.40644,2.627955 1.540282,5.574679 4.168239,4.16824 z M 56.64,36.32 V 33.28 H 41.6 26.56 v 3.04 3.04 H 41.6 56.64 Z"
     id="path108"
     inkscape:connector-curvature="0" />
</svg>
