<?xml version="1.0" encoding="UTF-8" standalone="no"?>
<!-- Created with Inkscape (http://www.inkscape.org/) -->

<svg
   xmlns:dc="http://purl.org/dc/elements/1.1/"
   xmlns:cc="http://creativecommons.org/ns#"
   xmlns:rdf="http://www.w3.org/1999/02/22-rdf-syntax-ns#"
   xmlns:svg="http://www.w3.org/2000/svg"
   xmlns="http://www.w3.org/2000/svg"
   xmlns:sodipodi="http://sodipodi.sourceforge.net/DTD/sodipodi-0.dtd"
   xmlns:inkscape="http://www.inkscape.org/namespaces/inkscape"
   version="1.1"
   id="svg4280"
   width="1600"
   height="1600"
   viewBox="0 0 1600 1600"
   sodipodi:docname="folder.svg"
   inkscape:version="0.92.3 (2405546, 2018-03-11)">
  <metadata
     id="metadata4286">
    <rdf:RDF>
      <cc:Work
         rdf:about="">
        <dc:format>image/svg+xml</dc:format>
        <dc:type
           rdf:resource="http://purl.org/dc/dcmitype/StillImage" />
        <dc:title></dc:title>
      </cc:Work>
    </rdf:RDF>
  </metadata>
  <defs
     id="defs4284" />
  <sodipodi:namedview
     pagecolor="#ffffff"
     bordercolor="#666666"
     borderopacity="1"
     objecttolerance="10"
     gridtolerance="10"
     guidetolerance="10"
     inkscape:pageopacity="0"
     inkscape:pageshadow="2"
     inkscape:window-width="1920"
     inkscape:window-height="1017"
     id="namedview4282"
     showgrid="false"
     inkscape:zoom="0.1475"
     inkscape:cx="-1522.0339"
     inkscape:cy="800"
     inkscape:window-x="-8"
     inkscape:window-y="-8"
     inkscape:window-maximized="1"
     inkscape:current-layer="svg4280" />
  <path
     d="M 233.82369,1371.7235 C 142.86653,1363.9041 76.893745,1273.6489 88.471385,1186.1738 88.725189,878.60148 86.478209,570.93784 90.1772,263.42085 103.1198,176.20618 192.96815,117.12319 279.57048,127.95809 c 94.86457,2.08486 190.64811,-5.67983 284.97182,4.30185 72.81507,15.81931 127.5668,84.58276 127.55779,157.93224 226.79955,0.66551 453.79181,-0.60344 680.47101,1.27009 89.0887,10.85174 153.416,98.45583 141.9829,185.1704 0.601,249.12184 1.1249,498.2542 -0.4428,747.37123 -5.107,90.6798 -96.2513,159.9695 -186.2129,148.1059 -364.68965,0.5778 -729.38836,1.0611 -1094.07461,-0.3863 z M 1361.5894,1263.2986 c 44.4976,-8.42 46.5224,-54.0812 43.4627,-88.8588 -0.7473,-245.14763 1.8126,-490.38804 -1.661,-735.46491 -10.2423,-42.2289 -54.8891,-42.78353 -89.3332,-40.24177 -357.21072,0 -714.42148,0 -1071.63223,0 -65.54009,18.1395 -38.72153,96.98298 -44.67661,145.98103 -0.071,225.23903 0.21972,450.47812 0.30847,675.71715 26.96503,71.7946 119.03872,34.6939 178.20156,44.0088 328.4356,-0.426 656.92461,1.5407 985.33031,-1.1415 z"
     id="path4290"
     inkscape:connector-curvature="0" />
</svg>
