<?xml version="1.0" encoding="UTF-8" standalone="no"?>
<!-- Created with Inkscape (http://www.inkscape.org/) -->

<svg
   xmlns:dc="http://purl.org/dc/elements/1.1/"
   xmlns:cc="http://creativecommons.org/ns#"
   xmlns:rdf="http://www.w3.org/1999/02/22-rdf-syntax-ns#"
   xmlns:svg="http://www.w3.org/2000/svg"
   xmlns="http://www.w3.org/2000/svg"
   xmlns:sodipodi="http://sodipodi.sourceforge.net/DTD/sodipodi-0.dtd"
   xmlns:inkscape="http://www.inkscape.org/namespaces/inkscape"
   version="1.1"
   id="svg32"
   width="340"
   height="340"
   viewBox="0 0 340 340"
   sodipodi:docname="networkdrive.svg"
   inkscape:version="0.92.3 (2405546, 2018-03-11)">
  <metadata
     id="metadata38">
    <rdf:RDF>
      <cc:Work
         rdf:about="">
        <dc:format>image/svg+xml</dc:format>
        <dc:type
           rdf:resource="http://purl.org/dc/dcmitype/StillImage" />
        <dc:title></dc:title>
      </cc:Work>
    </rdf:RDF>
  </metadata>
  <defs
     id="defs36" />
  <sodipodi:namedview
     pagecolor="#ffffff"
     bordercolor="#666666"
     borderopacity="1"
     objecttolerance="10"
     gridtolerance="10"
     guidetolerance="10"
     inkscape:pageopacity="0"
     inkscape:pageshadow="2"
     inkscape:window-width="1920"
     inkscape:window-height="1017"
     id="namedview34"
     showgrid="false"
     inkscape:zoom="0.69411765"
     inkscape:cx="170"
     inkscape:cy="170"
     inkscape:window-x="-8"
     inkscape:window-y="-8"
     inkscape:window-maximized="1"
     inkscape:current-layer="svg32" />
  <path
     d="m 130.31081,311.20047 c -4.69716,-15.42836 -23.20317,-9.05448 -35.557386,-10.89861 -25.035633,-0.22931 -50.072919,-0.086 -75.109356,-0.12616 0,-9.69112 0,-19.38225 0,-29.07337 35.043684,-0.45769 70.223345,1.32118 105.146232,-1.93925 3.73277,-10.03341 16.32254,-11.98136 26.16324,-11.27591 7.53746,2.28747 4.03551,-6.46447 4.79528,-10.95468 0,-6.03956 0,-12.07913 0,-18.11869 -31.51713,-0.48177 -63.18294,1.41333 -94.557577,-2.13486 C 44.877911,226.19573 34.710017,211.1259 36.741984,195.72334 35.362711,144.2451 36.210054,92.734748 35.976635,41.241847 41.639728,35.685681 46.577219,28.510707 52.693542,23.9657 86.591618,23.440882 120.48969,22.916063 154.38777,22.391241 c 9.91903,9.779777 19.83805,19.559563 29.75706,29.339358 31.288,0.403201 62.64728,-1.002529 93.87561,1.052676 16.58296,-0.400727 26.59709,14.901024 26.37176,30.122125 1.95332,36.88774 1.07722,73.90153 0.50283,110.82809 1.74402,14.96566 -5.95879,31.53552 -22.71365,32.59531 -31.96676,4.14619 -64.32975,1.92119 -96.48953,2.485 0,9.69112 0,19.38225 0,29.07337 10.28658,0.0818 23.31518,-1.46992 29.52961,8.6798 10.30163,7.42052 28.91491,2.64927 42.35604,4.48841 21.40615,0.094 42.81276,0.0265 64.21911,0.0469 0,9.69112 0,19.38225 0,29.07337 -33.53434,0.34428 -67.13215,-0.91704 -100.61214,1.17489 -8.81182,3.67946 -13.02378,17.56773 -26.4213,14.24815 -19.38549,0.37126 -38.96013,1.41515 -58.23053,-1.01844 -2.33111,-0.49325 -4.6264,-1.5629 -6.22183,-3.37983 z"
     id="path42"
     inkscape:connector-curvature="0" />
</svg>
