<?xml version="1.0" encoding="UTF-8" standalone="no"?>
<!-- Created with Inkscape (http://www.inkscape.org/) -->

<svg
   xmlns:dc="http://purl.org/dc/elements/1.1/"
   xmlns:cc="http://creativecommons.org/ns#"
   xmlns:rdf="http://www.w3.org/1999/02/22-rdf-syntax-ns#"
   xmlns:svg="http://www.w3.org/2000/svg"
   xmlns="http://www.w3.org/2000/svg"
   xmlns:sodipodi="http://sodipodi.sourceforge.net/DTD/sodipodi-0.dtd"
   xmlns:inkscape="http://www.inkscape.org/namespaces/inkscape"
   version="1.1"
   id="svg4957"
   width="225"
   height="225"
   viewBox="0 0 225 225"
   sodipodi:docname="usb.svg"
   inkscape:version="0.92.3 (2405546, 2018-03-11)">
  <metadata
     id="metadata4963">
    <rdf:RDF>
      <cc:Work
         rdf:about="">
        <dc:format>image/svg+xml</dc:format>
        <dc:type
           rdf:resource="http://purl.org/dc/dcmitype/StillImage" />
        <dc:title></dc:title>
      </cc:Work>
    </rdf:RDF>
  </metadata>
  <defs
     id="defs4961" />
  <sodipodi:namedview
     pagecolor="#ffffff"
     bordercolor="#666666"
     borderopacity="1"
     objecttolerance="10"
     gridtolerance="10"
     guidetolerance="10"
     inkscape:pageopacity="0"
     inkscape:pageshadow="2"
     inkscape:window-width="1920"
     inkscape:window-height="1017"
     id="namedview4959"
     showgrid="false"
     inkscape:zoom="1.0488889"
     inkscape:cx="112.5"
     inkscape:cy="112.5"
     inkscape:window-x="-8"
     inkscape:window-y="-8"
     inkscape:window-maximized="1"
     inkscape:current-layer="svg4957" />
  <path
     d="m 48.383912,204.08688 c -4.18753,-2.11143 -7.797341,-5.85619 -9.887295,-9.90668 -0.07128,-28.97783 -0.804354,-57.96897 0.002,-86.93708 C 40.642756,99.422911 48.454441,94.957875 56,93.58519 56,68.72346 56,43.86173 56,19 c 37.666667,0 75.33333,0 113,0 0,24.86173 0,49.72346 0,74.58519 7.90617,1.427196 16.67955,6.50693 17.6147,15.17101 0.57707,28.63056 -0.003,57.26844 -0.1147,85.9018 -3.48982,4.75381 -7.14694,10.40134 -13.8284,10.26717 -24.09753,1.83593 -48.31783,0.69641 -72.46615,1.02816 -16.428063,-0.27854 -32.943564,0.60257 -49.304883,-1.04073 L 49.93508,204.67225 Z M 150,65.5 c 0,-9.5 0,-19 0,-28.5 -25,0 -50,0 -75,0 0,19 0,38 0,57 25,0 50,0 75,0 0,-9.5 0,-19 0,-28.5 z M 85,56 c 0,-3 0,-6 0,-9 6,0 12,0 18,0 0,6 0,12 0,18 -6,0 -12,0 -18,0 0,-3 0,-6 0,-9 z m 37,0 c 0,-3 0,-6 0,-9 6,0 12,0 18,0 0,6 0,12 0,18 -6,0 -12,0 -18,0 0,-3 0,-6 0,-9 z"
     id="path4967"
     inkscape:connector-curvature="0" />
</svg>
